<svg version="1.1" id="Warstwa_1" xmlns="http://www.w3.org/2000/svg" x="0" y="0" viewBox="0 0 13.3 13.3" xml:space="preserve"><g id="Group_2879" transform="translate(-1436.5 -67)"><path id="Rectangle_383" transform="rotate(-45 1447.006 77.518)" d="M1446.5 74h1v7h-1z"/><g id="Path_3"><path d="M1441.5 67c2.8 0 5 2.2 5 5s-2.2 5-5 5-5-2.2-5-5 2.2-5 5-5z" fill="none"/><path d="M1441.5 68c-2.2 0-4 1.8-4 4s1.8 4 4 4 4-1.8 4-4-1.8-4-4-4m0-1c2.8 0 5 2.2 5 5s-2.2 5-5 5-5-2.2-5-5 2.2-5 5-5z"/></g></g></svg>